<mxfile etag="Rg-A9mnsA59ObkAgly0F" agent="5.0 (Windows NT 10.0; Win64; x64) AppleWebKit/537.36 (KHTML, like Gecko) Code/1.46.1 Chrome/78.0.3904.130 Electron/7.3.1 Safari/537.36" modified="2020-06-27T23:42:48.122Z" host="" version="13.1.3" pages="4">
    <diagram id="6hGFLwfOUW9BJ-s0fimq" name="Player Connects">
        <mxGraphModel dx="736" dy="577" grid="1" gridSize="10" guides="1" tooltips="1" connect="1" arrows="1" fold="1" page="1" pageScale="1" pageWidth="827" pageHeight="1169" math="0" shadow="0">
            <root>
                <mxCell id="0"/>
                <mxCell id="1" parent="0"/>
                <mxCell id="25" style="edgeStyle=orthogonalEdgeStyle;curved=1;rounded=0;orthogonalLoop=1;jettySize=auto;html=1;entryX=0.5;entryY=0;entryDx=0;entryDy=0;" parent="1" target="4" edge="1">
                    <mxGeometry relative="1" as="geometry">
                        <mxPoint x="180" y="75" as="sourcePoint"/>
                    </mxGeometry>
                </mxCell>
                <mxCell id="26" value="(1) open connection&lt;br&gt;with server" style="edgeLabel;html=1;align=center;verticalAlign=middle;resizable=0;points=[];" parent="25" connectable="0" vertex="1">
                    <mxGeometry x="-0.3087" y="-6" relative="1" as="geometry">
                        <mxPoint x="-12" y="16.5" as="offset"/>
                    </mxGeometry>
                </mxCell>
                <mxCell id="3" value="Local Game" style="rounded=0;whiteSpace=wrap;html=1;fillColor=#FFFF33;strokeColor=#B09500;fontColor=#000000;" parent="1" vertex="1">
                    <mxGeometry x="60" y="60" width="120" height="30" as="geometry"/>
                </mxCell>
                <mxCell id="27" style="edgeStyle=orthogonalEdgeStyle;curved=1;rounded=0;orthogonalLoop=1;jettySize=auto;html=1;exitX=0;exitY=0.25;exitDx=0;exitDy=0;entryX=0.75;entryY=1;entryDx=0;entryDy=0;" parent="1" source="4" target="3" edge="1">
                    <mxGeometry relative="1" as="geometry"/>
                </mxCell>
                <mxCell id="28" value="(2) send welcome &lt;br&gt;with initial position" style="edgeLabel;html=1;align=center;verticalAlign=middle;resizable=0;points=[];" parent="27" connectable="0" vertex="1">
                    <mxGeometry x="-0.0026" y="-26" relative="1" as="geometry">
                        <mxPoint x="4" y="-59.5" as="offset"/>
                    </mxGeometry>
                </mxCell>
                <mxCell id="4" value="Server" style="rounded=0;whiteSpace=wrap;html=1;fillColor=#f0a30a;strokeColor=#BD7000;fontColor=#000000;" parent="1" vertex="1">
                    <mxGeometry x="310" y="260" width="120" height="30" as="geometry"/>
                </mxCell>
                <mxCell id="36" style="edgeStyle=orthogonalEdgeStyle;rounded=0;orthogonalLoop=1;jettySize=auto;html=1;exitX=0.5;exitY=0;exitDx=0;exitDy=0;entryX=0.25;entryY=0;entryDx=0;entryDy=0;curved=1;" parent="1" source="3" target="3" edge="1">
                    <mxGeometry relative="1" as="geometry">
                        <Array as="points">
                            <mxPoint x="120" y="30"/>
                            <mxPoint x="90" y="30"/>
                        </Array>
                    </mxGeometry>
                </mxCell>
                <mxCell id="37" value="(3) render &lt;br&gt;local player" style="edgeLabel;html=1;align=center;verticalAlign=middle;resizable=0;points=[];" parent="36" connectable="0" vertex="1">
                    <mxGeometry x="-0.4222" y="5" relative="1" as="geometry">
                        <mxPoint x="-65" y="-4" as="offset"/>
                    </mxGeometry>
                </mxCell>
            </root>
        </mxGraphModel>
    </diagram>
    <diagram id="0n_lNXVa9ntdit9ih4yo" name="Player Joins The Game">
        <mxGraphModel dx="736" dy="577" grid="1" gridSize="10" guides="1" tooltips="1" connect="1" arrows="1" fold="1" page="1" pageScale="1" pageWidth="850" pageHeight="1100" math="0" shadow="0">
            <root>
                <mxCell id="tWpiseRlfWbCnAalKlqM-0"/>
                <mxCell id="tWpiseRlfWbCnAalKlqM-1" parent="tWpiseRlfWbCnAalKlqM-0"/>
                <mxCell id="3NFdJSVWxG-qaGq5bpnX-0" style="edgeStyle=orthogonalEdgeStyle;curved=1;rounded=0;orthogonalLoop=1;jettySize=auto;html=1;exitX=0.5;exitY=1;exitDx=0;exitDy=0;entryX=0.75;entryY=1;entryDx=0;entryDy=0;" parent="tWpiseRlfWbCnAalKlqM-1" source="3NFdJSVWxG-qaGq5bpnX-6" target="3NFdJSVWxG-qaGq5bpnX-6" edge="1">
                    <mxGeometry relative="1" as="geometry">
                        <mxPoint x="70" y="160" as="targetPoint"/>
                        <Array as="points">
                            <mxPoint x="120" y="120"/>
                            <mxPoint x="150" y="120"/>
                        </Array>
                    </mxGeometry>
                </mxCell>
                <mxCell id="3NFdJSVWxG-qaGq5bpnX-1" value="(6) render &lt;br&gt;remote players" style="edgeLabel;html=1;align=center;verticalAlign=middle;resizable=0;points=[];" parent="3NFdJSVWxG-qaGq5bpnX-0" connectable="0" vertex="1">
                    <mxGeometry x="0.2889" y="-3" relative="1" as="geometry">
                        <mxPoint x="8" y="23" as="offset"/>
                    </mxGeometry>
                </mxCell>
                <mxCell id="3NFdJSVWxG-qaGq5bpnX-4" style="edgeStyle=orthogonalEdgeStyle;rounded=0;orthogonalLoop=1;jettySize=auto;html=1;exitX=1;exitY=0.5;exitDx=0;exitDy=0;entryX=0.25;entryY=0;entryDx=0;entryDy=0;curved=1;" parent="tWpiseRlfWbCnAalKlqM-1" source="3NFdJSVWxG-qaGq5bpnX-6" target="3NFdJSVWxG-qaGq5bpnX-13" edge="1">
                    <mxGeometry relative="1" as="geometry"/>
                </mxCell>
                <mxCell id="3NFdJSVWxG-qaGq5bpnX-5" value="(1) confirm&lt;br&gt;player join" style="edgeLabel;html=1;align=center;verticalAlign=middle;resizable=0;points=[];" parent="3NFdJSVWxG-qaGq5bpnX-4" connectable="0" vertex="1">
                    <mxGeometry x="-0.3484" y="-32" relative="1" as="geometry">
                        <mxPoint as="offset"/>
                    </mxGeometry>
                </mxCell>
                <mxCell id="3NFdJSVWxG-qaGq5bpnX-6" value="Local Game" style="rounded=0;whiteSpace=wrap;html=1;fillColor=#FFFF33;strokeColor=#B09500;fontColor=#000000;" parent="tWpiseRlfWbCnAalKlqM-1" vertex="1">
                    <mxGeometry x="60" y="60" width="120" height="30" as="geometry"/>
                </mxCell>
                <mxCell id="3NFdJSVWxG-qaGq5bpnX-7" style="edgeStyle=orthogonalEdgeStyle;curved=1;rounded=0;orthogonalLoop=1;jettySize=auto;html=1;exitX=0.25;exitY=1;exitDx=0;exitDy=0;entryX=1;entryY=0.25;entryDx=0;entryDy=0;" parent="tWpiseRlfWbCnAalKlqM-1" source="3NFdJSVWxG-qaGq5bpnX-13" target="3NFdJSVWxG-qaGq5bpnX-14" edge="1">
                    <mxGeometry relative="1" as="geometry"/>
                </mxCell>
                <mxCell id="3NFdJSVWxG-qaGq5bpnX-8" value="(3) send new player &lt;br&gt;info to other games " style="edgeLabel;html=1;align=center;verticalAlign=middle;resizable=0;points=[];" parent="3NFdJSVWxG-qaGq5bpnX-7" connectable="0" vertex="1">
                    <mxGeometry x="0.2603" y="-24" relative="1" as="geometry">
                        <mxPoint as="offset"/>
                    </mxGeometry>
                </mxCell>
                <mxCell id="3NFdJSVWxG-qaGq5bpnX-9" style="edgeStyle=orthogonalEdgeStyle;curved=1;rounded=0;orthogonalLoop=1;jettySize=auto;html=1;exitX=0;exitY=0.75;exitDx=0;exitDy=0;entryX=0.25;entryY=1;entryDx=0;entryDy=0;fillColor=#60a917;" parent="tWpiseRlfWbCnAalKlqM-1" source="3NFdJSVWxG-qaGq5bpnX-13" target="3NFdJSVWxG-qaGq5bpnX-6" edge="1">
                    <mxGeometry relative="1" as="geometry">
                        <mxPoint x="70" y="420" as="targetPoint"/>
                    </mxGeometry>
                </mxCell>
                <mxCell id="3NFdJSVWxG-qaGq5bpnX-10" value="(5) send other players' info &lt;br&gt;and position&amp;nbsp;to new player" style="edgeLabel;html=1;align=center;verticalAlign=middle;resizable=0;points=[];" parent="3NFdJSVWxG-qaGq5bpnX-9" connectable="0" vertex="1">
                    <mxGeometry x="-0.3565" y="-36" relative="1" as="geometry">
                        <mxPoint x="-39" y="13.5" as="offset"/>
                    </mxGeometry>
                </mxCell>
                <mxCell id="3NFdJSVWxG-qaGq5bpnX-13" value="Server" style="rounded=0;whiteSpace=wrap;html=1;fillColor=#f0a30a;strokeColor=#BD7000;fontColor=#000000;" parent="tWpiseRlfWbCnAalKlqM-1" vertex="1">
                    <mxGeometry x="310" y="260" width="120" height="30" as="geometry"/>
                </mxCell>
                <mxCell id="3NFdJSVWxG-qaGq5bpnX-14" value="Remote Game" style="rounded=0;whiteSpace=wrap;html=1;fillColor=#60a917;strokeColor=#2D7600;fontColor=#000000;" parent="tWpiseRlfWbCnAalKlqM-1" vertex="1">
                    <mxGeometry x="60" y="430" width="120" height="30" as="geometry"/>
                </mxCell>
                <mxCell id="3NFdJSVWxG-qaGq5bpnX-15" style="edgeStyle=orthogonalEdgeStyle;rounded=0;orthogonalLoop=1;jettySize=auto;html=1;exitX=0.5;exitY=0;exitDx=0;exitDy=0;entryX=0.75;entryY=0;entryDx=0;entryDy=0;curved=1;" parent="tWpiseRlfWbCnAalKlqM-1" source="3NFdJSVWxG-qaGq5bpnX-14" target="3NFdJSVWxG-qaGq5bpnX-14" edge="1">
                    <mxGeometry relative="1" as="geometry">
                        <Array as="points">
                            <mxPoint x="120" y="400"/>
                            <mxPoint x="150" y="400"/>
                        </Array>
                    </mxGeometry>
                </mxCell>
                <mxCell id="3NFdJSVWxG-qaGq5bpnX-16" value="(4) render new player" style="edgeLabel;html=1;align=center;verticalAlign=middle;resizable=0;points=[];" parent="3NFdJSVWxG-qaGq5bpnX-15" connectable="0" vertex="1">
                    <mxGeometry x="0.2667" y="-3" relative="1" as="geometry">
                        <mxPoint y="-13" as="offset"/>
                    </mxGeometry>
                </mxCell>
                <mxCell id="3NFdJSVWxG-qaGq5bpnX-17" style="edgeStyle=orthogonalEdgeStyle;curved=1;rounded=0;orthogonalLoop=1;jettySize=auto;html=1;exitX=0.5;exitY=1;exitDx=0;exitDy=0;entryX=0.75;entryY=1;entryDx=0;entryDy=0;" parent="tWpiseRlfWbCnAalKlqM-1" target="3NFdJSVWxG-qaGq5bpnX-13" edge="1">
                    <mxGeometry relative="1" as="geometry">
                        <Array as="points">
                            <mxPoint x="370" y="320"/>
                            <mxPoint x="400" y="320"/>
                        </Array>
                        <mxPoint x="370" y="290" as="sourcePoint"/>
                        <mxPoint x="340" y="290" as="targetPoint"/>
                    </mxGeometry>
                </mxCell>
                <mxCell id="3NFdJSVWxG-qaGq5bpnX-18" value="(2) store &lt;br&gt;new player" style="edgeLabel;html=1;align=center;verticalAlign=middle;resizable=0;points=[];" parent="3NFdJSVWxG-qaGq5bpnX-17" connectable="0" vertex="1">
                    <mxGeometry x="-0.4" y="-4" relative="1" as="geometry">
                        <mxPoint x="25" y="23" as="offset"/>
                    </mxGeometry>
                </mxCell>
            </root>
        </mxGraphModel>
    </diagram>
    <diagram id="J65INu4TDB2IW9ojeelq" name="Player Moves">
        <mxGraphModel dx="736" dy="577" grid="1" gridSize="10" guides="1" tooltips="1" connect="1" arrows="1" fold="1" page="1" pageScale="1" pageWidth="850" pageHeight="1100" math="0" shadow="0">
            <root>
                <mxCell id="xwZkG9tiUpKEC7rxFgWI-0"/>
                <mxCell id="xwZkG9tiUpKEC7rxFgWI-1" parent="xwZkG9tiUpKEC7rxFgWI-0"/>
                <mxCell id="V42rVzGtba0PNn_ShyjG-0" style="edgeStyle=orthogonalEdgeStyle;curved=1;rounded=0;orthogonalLoop=1;jettySize=auto;html=1;exitX=0.5;exitY=1;exitDx=0;exitDy=0;entryX=0.75;entryY=1;entryDx=0;entryDy=0;" parent="xwZkG9tiUpKEC7rxFgWI-1" source="V42rVzGtba0PNn_ShyjG-4" target="V42rVzGtba0PNn_ShyjG-4" edge="1">
                    <mxGeometry relative="1" as="geometry">
                        <mxPoint x="70" y="160" as="targetPoint"/>
                        <Array as="points">
                            <mxPoint x="120" y="120"/>
                            <mxPoint x="150" y="120"/>
                        </Array>
                    </mxGeometry>
                </mxCell>
                <mxCell id="V42rVzGtba0PNn_ShyjG-1" value="(5) correct position" style="edgeLabel;html=1;align=center;verticalAlign=middle;resizable=0;points=[];" parent="V42rVzGtba0PNn_ShyjG-0" connectable="0" vertex="1">
                    <mxGeometry x="0.2889" y="-3" relative="1" as="geometry">
                        <mxPoint x="8" y="23" as="offset"/>
                    </mxGeometry>
                </mxCell>
                <mxCell id="V42rVzGtba0PNn_ShyjG-2" style="edgeStyle=orthogonalEdgeStyle;rounded=0;orthogonalLoop=1;jettySize=auto;html=1;exitX=1;exitY=0.5;exitDx=0;exitDy=0;entryX=0.25;entryY=0;entryDx=0;entryDy=0;curved=1;" parent="xwZkG9tiUpKEC7rxFgWI-1" source="V42rVzGtba0PNn_ShyjG-4" target="V42rVzGtba0PNn_ShyjG-9" edge="1">
                    <mxGeometry relative="1" as="geometry"/>
                </mxCell>
                <mxCell id="V42rVzGtba0PNn_ShyjG-3" value="(2) send movement &lt;br&gt;attempt" style="edgeLabel;html=1;align=center;verticalAlign=middle;resizable=0;points=[];" parent="V42rVzGtba0PNn_ShyjG-2" connectable="0" vertex="1">
                    <mxGeometry x="-0.3484" y="-32" relative="1" as="geometry">
                        <mxPoint as="offset"/>
                    </mxGeometry>
                </mxCell>
                <mxCell id="V42rVzGtba0PNn_ShyjG-4" value="Local Game" style="rounded=0;whiteSpace=wrap;html=1;fillColor=#FFFF33;strokeColor=#B09500;fontColor=#000000;" parent="xwZkG9tiUpKEC7rxFgWI-1" vertex="1">
                    <mxGeometry x="60" y="60" width="120" height="30" as="geometry"/>
                </mxCell>
                <mxCell id="V42rVzGtba0PNn_ShyjG-5" style="edgeStyle=orthogonalEdgeStyle;curved=1;rounded=0;orthogonalLoop=1;jettySize=auto;html=1;exitX=0.25;exitY=1;exitDx=0;exitDy=0;entryX=1;entryY=0.25;entryDx=0;entryDy=0;" parent="xwZkG9tiUpKEC7rxFgWI-1" source="V42rVzGtba0PNn_ShyjG-9" target="V42rVzGtba0PNn_ShyjG-10" edge="1">
                    <mxGeometry relative="1" as="geometry"/>
                </mxCell>
                <mxCell id="V42rVzGtba0PNn_ShyjG-6" value="(6) send player's new &lt;br&gt;position&amp;nbsp;to other games " style="edgeLabel;html=1;align=center;verticalAlign=middle;resizable=0;points=[];" parent="V42rVzGtba0PNn_ShyjG-5" connectable="0" vertex="1">
                    <mxGeometry x="0.2603" y="-24" relative="1" as="geometry">
                        <mxPoint as="offset"/>
                    </mxGeometry>
                </mxCell>
                <mxCell id="V42rVzGtba0PNn_ShyjG-7" style="edgeStyle=orthogonalEdgeStyle;curved=1;rounded=0;orthogonalLoop=1;jettySize=auto;html=1;exitX=0;exitY=0.75;exitDx=0;exitDy=0;entryX=0.25;entryY=1;entryDx=0;entryDy=0;fillColor=#60a917;" parent="xwZkG9tiUpKEC7rxFgWI-1" source="V42rVzGtba0PNn_ShyjG-9" target="V42rVzGtba0PNn_ShyjG-4" edge="1">
                    <mxGeometry relative="1" as="geometry">
                        <mxPoint x="70" y="420" as="targetPoint"/>
                    </mxGeometry>
                </mxCell>
                <mxCell id="V42rVzGtba0PNn_ShyjG-8" value="(4) send new position" style="edgeLabel;html=1;align=center;verticalAlign=middle;resizable=0;points=[];" parent="V42rVzGtba0PNn_ShyjG-7" connectable="0" vertex="1">
                    <mxGeometry x="-0.3565" y="-36" relative="1" as="geometry">
                        <mxPoint x="-27" y="3.5" as="offset"/>
                    </mxGeometry>
                </mxCell>
                <mxCell id="V42rVzGtba0PNn_ShyjG-9" value="Server" style="rounded=0;whiteSpace=wrap;html=1;fillColor=#f0a30a;strokeColor=#BD7000;fontColor=#000000;" parent="xwZkG9tiUpKEC7rxFgWI-1" vertex="1">
                    <mxGeometry x="310" y="260" width="120" height="30" as="geometry"/>
                </mxCell>
                <mxCell id="V42rVzGtba0PNn_ShyjG-10" value="Remote Game" style="rounded=0;whiteSpace=wrap;html=1;fillColor=#60a917;strokeColor=#2D7600;fontColor=#000000;" parent="xwZkG9tiUpKEC7rxFgWI-1" vertex="1">
                    <mxGeometry x="60" y="430" width="120" height="30" as="geometry"/>
                </mxCell>
                <mxCell id="V42rVzGtba0PNn_ShyjG-11" style="edgeStyle=orthogonalEdgeStyle;rounded=0;orthogonalLoop=1;jettySize=auto;html=1;exitX=0.5;exitY=0;exitDx=0;exitDy=0;entryX=0.75;entryY=0;entryDx=0;entryDy=0;curved=1;" parent="xwZkG9tiUpKEC7rxFgWI-1" source="V42rVzGtba0PNn_ShyjG-10" target="V42rVzGtba0PNn_ShyjG-10" edge="1">
                    <mxGeometry relative="1" as="geometry">
                        <Array as="points">
                            <mxPoint x="120" y="400"/>
                            <mxPoint x="150" y="400"/>
                        </Array>
                    </mxGeometry>
                </mxCell>
                <mxCell id="V42rVzGtba0PNn_ShyjG-12" value="(7) render player movement" style="edgeLabel;html=1;align=center;verticalAlign=middle;resizable=0;points=[];" parent="V42rVzGtba0PNn_ShyjG-11" connectable="0" vertex="1">
                    <mxGeometry x="0.2667" y="-3" relative="1" as="geometry">
                        <mxPoint y="-13" as="offset"/>
                    </mxGeometry>
                </mxCell>
                <mxCell id="V42rVzGtba0PNn_ShyjG-13" style="edgeStyle=orthogonalEdgeStyle;curved=1;rounded=0;orthogonalLoop=1;jettySize=auto;html=1;exitX=0.5;exitY=1;exitDx=0;exitDy=0;entryX=0.75;entryY=1;entryDx=0;entryDy=0;" parent="xwZkG9tiUpKEC7rxFgWI-1" target="V42rVzGtba0PNn_ShyjG-9" edge="1">
                    <mxGeometry relative="1" as="geometry">
                        <Array as="points">
                            <mxPoint x="370" y="320"/>
                            <mxPoint x="400" y="320"/>
                        </Array>
                        <mxPoint x="370" y="290" as="sourcePoint"/>
                        <mxPoint x="340" y="290" as="targetPoint"/>
                    </mxGeometry>
                </mxCell>
                <mxCell id="V42rVzGtba0PNn_ShyjG-14" value="(3) validate, calculate &lt;br&gt;new position" style="edgeLabel;html=1;align=center;verticalAlign=middle;resizable=0;points=[];" parent="V42rVzGtba0PNn_ShyjG-13" connectable="0" vertex="1">
                    <mxGeometry x="-0.4" y="-4" relative="1" as="geometry">
                        <mxPoint x="25" y="23" as="offset"/>
                    </mxGeometry>
                </mxCell>
                <mxCell id="V42rVzGtba0PNn_ShyjG-15" style="edgeStyle=orthogonalEdgeStyle;curved=1;rounded=0;orthogonalLoop=1;jettySize=auto;html=1;exitX=0.5;exitY=0;exitDx=0;exitDy=0;entryX=0.75;entryY=0;entryDx=0;entryDy=0;" parent="xwZkG9tiUpKEC7rxFgWI-1" source="V42rVzGtba0PNn_ShyjG-4" target="V42rVzGtba0PNn_ShyjG-4" edge="1">
                    <mxGeometry relative="1" as="geometry">
                        <Array as="points">
                            <mxPoint x="120" y="30"/>
                            <mxPoint x="150" y="30"/>
                        </Array>
                    </mxGeometry>
                </mxCell>
                <mxCell id="V42rVzGtba0PNn_ShyjG-16" value="(1) player move, &lt;br&gt;predict movement" style="edgeLabel;html=1;align=center;verticalAlign=middle;resizable=0;points=[];" parent="V42rVzGtba0PNn_ShyjG-15" connectable="0" vertex="1">
                    <mxGeometry x="0.2533" relative="1" as="geometry">
                        <mxPoint x="54" as="offset"/>
                    </mxGeometry>
                </mxCell>
            </root>
        </mxGraphModel>
    </diagram>
    <diagram id="HFqJGXF05XEBhKaTk_G-" name="Player Disconnects">
        <mxGraphModel dx="736" dy="577" grid="1" gridSize="10" guides="1" tooltips="1" connect="1" arrows="1" fold="1" page="1" pageScale="1" pageWidth="700" pageHeight="450" math="0" shadow="0">
            <root>
                <mxCell id="JsK6Sz4T_5DIjwYr9bUt-0"/>
                <mxCell id="JsK6Sz4T_5DIjwYr9bUt-1" parent="JsK6Sz4T_5DIjwYr9bUt-0"/>
                <mxCell id="YmrfgzfNlimpw8deap8E-4" style="edgeStyle=orthogonalEdgeStyle;curved=1;rounded=0;orthogonalLoop=1;jettySize=auto;html=1;exitX=1;exitY=0.5;exitDx=0;exitDy=0;entryX=0;entryY=0.5;entryDx=0;entryDy=0;" parent="JsK6Sz4T_5DIjwYr9bUt-1" source="YmrfgzfNlimpw8deap8E-6" target="YmrfgzfNlimpw8deap8E-13" edge="1">
                    <mxGeometry relative="1" as="geometry"/>
                </mxCell>
                <mxCell id="YmrfgzfNlimpw8deap8E-5" value="(1) disconnected" style="edgeLabel;html=1;align=center;verticalAlign=middle;resizable=0;points=[];" parent="YmrfgzfNlimpw8deap8E-4" connectable="0" vertex="1">
                    <mxGeometry x="-0.3087" y="-6" relative="1" as="geometry">
                        <mxPoint x="15" y="9" as="offset"/>
                    </mxGeometry>
                </mxCell>
                <mxCell id="YmrfgzfNlimpw8deap8E-6" value="Local Game" style="rounded=0;whiteSpace=wrap;html=1;fillColor=#FFFF33;strokeColor=#B09500;fontColor=#000000;" parent="JsK6Sz4T_5DIjwYr9bUt-1" vertex="1">
                    <mxGeometry x="30" y="90" width="120" height="30" as="geometry"/>
                </mxCell>
                <mxCell id="YmrfgzfNlimpw8deap8E-7" style="edgeStyle=orthogonalEdgeStyle;curved=1;rounded=0;orthogonalLoop=1;jettySize=auto;html=1;exitX=1;exitY=0.5;exitDx=0;exitDy=0;entryX=0;entryY=0.5;entryDx=0;entryDy=0;" parent="JsK6Sz4T_5DIjwYr9bUt-1" source="YmrfgzfNlimpw8deap8E-13" target="YmrfgzfNlimpw8deap8E-14" edge="1">
                    <mxGeometry relative="1" as="geometry"/>
                </mxCell>
                <mxCell id="YmrfgzfNlimpw8deap8E-8" value="(3) inform player &lt;br&gt;disconnect" style="edgeLabel;html=1;align=center;verticalAlign=middle;resizable=0;points=[];" parent="YmrfgzfNlimpw8deap8E-7" connectable="0" vertex="1">
                    <mxGeometry x="0.2603" y="-24" relative="1" as="geometry">
                        <mxPoint x="-19" y="-49" as="offset"/>
                    </mxGeometry>
                </mxCell>
                <mxCell id="YmrfgzfNlimpw8deap8E-13" value="Server" style="rounded=0;whiteSpace=wrap;html=1;fillColor=#f0a30a;strokeColor=#BD7000;fontColor=#000000;" parent="JsK6Sz4T_5DIjwYr9bUt-1" vertex="1">
                    <mxGeometry x="310" y="90" width="120" height="30" as="geometry"/>
                </mxCell>
                <mxCell id="YmrfgzfNlimpw8deap8E-14" value="Remote Game" style="rounded=0;whiteSpace=wrap;html=1;fillColor=#60a917;strokeColor=#2D7600;fontColor=#000000;" parent="JsK6Sz4T_5DIjwYr9bUt-1" vertex="1">
                    <mxGeometry x="540" y="90" width="120" height="30" as="geometry"/>
                </mxCell>
                <mxCell id="YmrfgzfNlimpw8deap8E-15" style="edgeStyle=orthogonalEdgeStyle;rounded=0;orthogonalLoop=1;jettySize=auto;html=1;exitX=0.5;exitY=0;exitDx=0;exitDy=0;entryX=0.75;entryY=0;entryDx=0;entryDy=0;curved=1;" parent="JsK6Sz4T_5DIjwYr9bUt-1" source="YmrfgzfNlimpw8deap8E-14" target="YmrfgzfNlimpw8deap8E-14" edge="1">
                    <mxGeometry relative="1" as="geometry">
                        <Array as="points">
                            <mxPoint x="600" y="60"/>
                            <mxPoint x="630" y="60"/>
                        </Array>
                    </mxGeometry>
                </mxCell>
                <mxCell id="YmrfgzfNlimpw8deap8E-16" value="(4) destroy player" style="edgeLabel;html=1;align=center;verticalAlign=middle;resizable=0;points=[];" parent="YmrfgzfNlimpw8deap8E-15" connectable="0" vertex="1">
                    <mxGeometry x="0.2667" y="-3" relative="1" as="geometry">
                        <mxPoint y="-13" as="offset"/>
                    </mxGeometry>
                </mxCell>
                <mxCell id="YmrfgzfNlimpw8deap8E-17" style="edgeStyle=orthogonalEdgeStyle;curved=1;rounded=0;orthogonalLoop=1;jettySize=auto;html=1;exitX=0.75;exitY=1;exitDx=0;exitDy=0;entryX=0.5;entryY=1;entryDx=0;entryDy=0;" parent="JsK6Sz4T_5DIjwYr9bUt-1" source="YmrfgzfNlimpw8deap8E-13" target="YmrfgzfNlimpw8deap8E-13" edge="1">
                    <mxGeometry relative="1" as="geometry">
                        <Array as="points">
                            <mxPoint x="400" y="150"/>
                            <mxPoint x="370" y="150"/>
                        </Array>
                    </mxGeometry>
                </mxCell>
                <mxCell id="YmrfgzfNlimpw8deap8E-18" value="(2) remove player" style="edgeLabel;html=1;align=center;verticalAlign=middle;resizable=0;points=[];" parent="YmrfgzfNlimpw8deap8E-17" connectable="0" vertex="1">
                    <mxGeometry x="-0.4" y="-4" relative="1" as="geometry">
                        <mxPoint x="-16" y="23" as="offset"/>
                    </mxGeometry>
                </mxCell>
            </root>
        </mxGraphModel>
    </diagram>
</mxfile>